<mxfile host="app.diagrams.net" modified="2022-07-21T09:10:29.038Z" agent="5.0 (Macintosh; Intel Mac OS X 10_15_7) AppleWebKit/537.36 (KHTML, like Gecko) Chrome/103.0.0.0 Safari/537.36" etag="NAdVyj2e4MXy_0SJQ4O0" version="20.1.2" type="github">
  <diagram id="TZrOpAVfQGosAB9eyNiv" name="第 1 页">
    <mxGraphModel dx="1186" dy="738" grid="1" gridSize="10" guides="1" tooltips="1" connect="1" arrows="1" fold="1" page="1" pageScale="1" pageWidth="827" pageHeight="1169" math="0" shadow="0">
      <root>
        <mxCell id="0" />
        <mxCell id="1" parent="0" />
        <mxCell id="R7ozIv_ktK3I4oyqpyLC-3" value="" style="edgeStyle=orthogonalEdgeStyle;rounded=0;orthogonalLoop=1;jettySize=auto;html=1;" edge="1" parent="1" source="R7ozIv_ktK3I4oyqpyLC-1" target="R7ozIv_ktK3I4oyqpyLC-2">
          <mxGeometry relative="1" as="geometry" />
        </mxCell>
        <mxCell id="R7ozIv_ktK3I4oyqpyLC-1" value="A general store" style="rounded=0;whiteSpace=wrap;html=1;" vertex="1" parent="1">
          <mxGeometry x="354" y="70" width="120" height="60" as="geometry" />
        </mxCell>
        <mxCell id="R7ozIv_ktK3I4oyqpyLC-10" style="edgeStyle=orthogonalEdgeStyle;rounded=0;orthogonalLoop=1;jettySize=auto;html=1;" edge="1" parent="1" source="R7ozIv_ktK3I4oyqpyLC-2" target="R7ozIv_ktK3I4oyqpyLC-5">
          <mxGeometry relative="1" as="geometry" />
        </mxCell>
        <mxCell id="R7ozIv_ktK3I4oyqpyLC-11" value="" style="edgeStyle=orthogonalEdgeStyle;rounded=0;orthogonalLoop=1;jettySize=auto;html=1;" edge="1" parent="1" source="R7ozIv_ktK3I4oyqpyLC-2" target="R7ozIv_ktK3I4oyqpyLC-7">
          <mxGeometry relative="1" as="geometry">
            <Array as="points">
              <mxPoint x="490" y="210" />
            </Array>
          </mxGeometry>
        </mxCell>
        <mxCell id="R7ozIv_ktK3I4oyqpyLC-12" style="edgeStyle=orthogonalEdgeStyle;rounded=0;orthogonalLoop=1;jettySize=auto;html=1;entryX=0.5;entryY=0;entryDx=0;entryDy=0;" edge="1" parent="1" source="R7ozIv_ktK3I4oyqpyLC-2" target="R7ozIv_ktK3I4oyqpyLC-6">
          <mxGeometry relative="1" as="geometry" />
        </mxCell>
        <mxCell id="R7ozIv_ktK3I4oyqpyLC-14" style="edgeStyle=orthogonalEdgeStyle;rounded=0;orthogonalLoop=1;jettySize=auto;html=1;" edge="1" parent="1" source="R7ozIv_ktK3I4oyqpyLC-2" target="R7ozIv_ktK3I4oyqpyLC-8">
          <mxGeometry relative="1" as="geometry" />
        </mxCell>
        <mxCell id="R7ozIv_ktK3I4oyqpyLC-16" style="edgeStyle=orthogonalEdgeStyle;rounded=0;orthogonalLoop=1;jettySize=auto;html=1;" edge="1" parent="1" source="R7ozIv_ktK3I4oyqpyLC-2">
          <mxGeometry relative="1" as="geometry">
            <mxPoint x="760" y="280" as="targetPoint" />
          </mxGeometry>
        </mxCell>
        <mxCell id="R7ozIv_ktK3I4oyqpyLC-2" value="App" style="shape=parallelogram;perimeter=parallelogramPerimeter;whiteSpace=wrap;html=1;fixedSize=1;" vertex="1" parent="1">
          <mxGeometry x="354" y="180" width="120" height="60" as="geometry" />
        </mxCell>
        <mxCell id="R7ozIv_ktK3I4oyqpyLC-5" value="HomePage" style="shape=parallelogram;perimeter=parallelogramPerimeter;whiteSpace=wrap;html=1;fixedSize=1;" vertex="1" parent="1">
          <mxGeometry x="60" y="280" width="120" height="60" as="geometry" />
        </mxCell>
        <mxCell id="R7ozIv_ktK3I4oyqpyLC-20" style="edgeStyle=orthogonalEdgeStyle;rounded=0;orthogonalLoop=1;jettySize=auto;html=1;fontSize=18;" edge="1" parent="1" source="R7ozIv_ktK3I4oyqpyLC-6" target="R7ozIv_ktK3I4oyqpyLC-17">
          <mxGeometry relative="1" as="geometry" />
        </mxCell>
        <mxCell id="R7ozIv_ktK3I4oyqpyLC-21" style="edgeStyle=orthogonalEdgeStyle;rounded=0;orthogonalLoop=1;jettySize=auto;html=1;fontSize=18;" edge="1" parent="1" source="R7ozIv_ktK3I4oyqpyLC-6" target="R7ozIv_ktK3I4oyqpyLC-18">
          <mxGeometry relative="1" as="geometry" />
        </mxCell>
        <mxCell id="R7ozIv_ktK3I4oyqpyLC-6" value="Combined Explore" style="shape=parallelogram;perimeter=parallelogramPerimeter;whiteSpace=wrap;html=1;fixedSize=1;" vertex="1" parent="1">
          <mxGeometry x="230" y="280" width="120" height="60" as="geometry" />
        </mxCell>
        <mxCell id="R7ozIv_ktK3I4oyqpyLC-7" value="Calendar" style="shape=parallelogram;perimeter=parallelogramPerimeter;whiteSpace=wrap;html=1;fixedSize=1;" vertex="1" parent="1">
          <mxGeometry x="420" y="280" width="120" height="60" as="geometry" />
        </mxCell>
        <mxCell id="R7ozIv_ktK3I4oyqpyLC-8" value="Dayview" style="shape=parallelogram;perimeter=parallelogramPerimeter;whiteSpace=wrap;html=1;fixedSize=1;" vertex="1" parent="1">
          <mxGeometry x="580" y="280" width="120" height="60" as="geometry" />
        </mxCell>
        <mxCell id="R7ozIv_ktK3I4oyqpyLC-15" value="&lt;font style=&quot;font-size: 18px;&quot;&gt;...&lt;/font&gt;" style="text;html=1;align=center;verticalAlign=middle;resizable=0;points=[];autosize=1;strokeColor=none;fillColor=none;" vertex="1" parent="1">
          <mxGeometry x="740" y="290" width="40" height="40" as="geometry" />
        </mxCell>
        <mxCell id="R7ozIv_ktK3I4oyqpyLC-27" value="" style="edgeStyle=orthogonalEdgeStyle;rounded=0;orthogonalLoop=1;jettySize=auto;html=1;fontSize=12;" edge="1" parent="1" source="R7ozIv_ktK3I4oyqpyLC-17" target="R7ozIv_ktK3I4oyqpyLC-25">
          <mxGeometry relative="1" as="geometry" />
        </mxCell>
        <mxCell id="R7ozIv_ktK3I4oyqpyLC-17" value="Flight List" style="shape=parallelogram;perimeter=parallelogramPerimeter;whiteSpace=wrap;html=1;fixedSize=1;" vertex="1" parent="1">
          <mxGeometry x="180" y="410" width="120" height="60" as="geometry" />
        </mxCell>
        <mxCell id="R7ozIv_ktK3I4oyqpyLC-28" value="" style="edgeStyle=orthogonalEdgeStyle;rounded=0;orthogonalLoop=1;jettySize=auto;html=1;fontSize=12;" edge="1" parent="1" source="R7ozIv_ktK3I4oyqpyLC-18" target="R7ozIv_ktK3I4oyqpyLC-26">
          <mxGeometry relative="1" as="geometry" />
        </mxCell>
        <mxCell id="R7ozIv_ktK3I4oyqpyLC-18" value="Filter Pills" style="shape=parallelogram;perimeter=parallelogramPerimeter;whiteSpace=wrap;html=1;fixedSize=1;" vertex="1" parent="1">
          <mxGeometry x="344" y="410" width="120" height="60" as="geometry" />
        </mxCell>
        <mxCell id="R7ozIv_ktK3I4oyqpyLC-25" value="UI" style="ellipse;whiteSpace=wrap;html=1;fontSize=12;" vertex="1" parent="1">
          <mxGeometry x="215" y="545" width="50" height="80" as="geometry" />
        </mxCell>
        <mxCell id="R7ozIv_ktK3I4oyqpyLC-26" value="UI" style="ellipse;whiteSpace=wrap;html=1;fontSize=12;" vertex="1" parent="1">
          <mxGeometry x="379" y="540" width="50" height="80" as="geometry" />
        </mxCell>
        <mxCell id="R7ozIv_ktK3I4oyqpyLC-29" value="useSelector" style="text;html=1;align=center;verticalAlign=middle;resizable=0;points=[];autosize=1;strokeColor=none;fillColor=none;fontSize=12;" vertex="1" parent="1">
          <mxGeometry x="239" y="494" width="90" height="30" as="geometry" />
        </mxCell>
        <mxCell id="R7ozIv_ktK3I4oyqpyLC-30" value="useSelector" style="text;html=1;align=center;verticalAlign=middle;resizable=0;points=[];autosize=1;strokeColor=none;fillColor=none;fontSize=12;" vertex="1" parent="1">
          <mxGeometry x="404" y="495" width="90" height="30" as="geometry" />
        </mxCell>
      </root>
    </mxGraphModel>
  </diagram>
</mxfile>
